<svg width="40" height="41" viewBox="0 0 40 41" fill="none" xmlns="http://www.w3.org/2000/svg">
<g filter="url(#filter0_d_38075_159)">
<rect x="4" y="0.5" width="32" height="32" rx="16" fill="white"/>
<path d="M20 6.90002C18.0904 6.90002 16.2591 7.65859 14.9088 9.00886C13.5586 10.3591 12.8 12.1905 12.8 14.1V18.4032L11.9516 19.2516C11.7838 19.4194 11.6696 19.6332 11.6233 19.866C11.577 20.0987 11.6008 20.34 11.6916 20.5592C11.7824 20.7784 11.9362 20.9658 12.1334 21.0977C12.3307 21.2296 12.5627 21.3 12.8 21.3H27.2C27.4373 21.3 27.6693 21.2296 27.8665 21.0977C28.0638 20.9658 28.2176 20.7784 28.3084 20.5592C28.3992 20.34 28.423 20.0987 28.3767 19.866C28.3304 19.6332 28.2162 19.4194 28.0484 19.2516L27.2 18.4032V14.1C27.2 12.1905 26.4414 10.3591 25.0912 9.00886C23.7409 7.65859 21.9096 6.90002 20 6.90002ZM20 26.1C19.0452 26.1 18.1295 25.7207 17.4544 25.0456C16.7793 24.3705 16.4 23.4548 16.4 22.5H23.6C23.6 23.4548 23.2207 24.3705 22.5456 25.0456C21.8704 25.7207 20.9548 26.1 20 26.1Z" fill="#111827"/>
</g>
<defs>
<filter id="filter0_d_38075_159" x="0" y="0.5" width="40" height="40" filterUnits="userSpaceOnUse" color-interpolation-filters="sRGB">
<feFlood flood-opacity="0" result="BackgroundImageFix"/>
<feColorMatrix in="SourceAlpha" type="matrix" values="0 0 0 0 0 0 0 0 0 0 0 0 0 0 0 0 0 0 127 0" result="hardAlpha"/>
<feOffset dy="4"/>
<feGaussianBlur stdDeviation="2"/>
<feComposite in2="hardAlpha" operator="out"/>
<feColorMatrix type="matrix" values="0 0 0 0 0 0 0 0 0 0 0 0 0 0 0 0 0 0 0.25 0"/>
<feBlend mode="normal" in2="BackgroundImageFix" result="effect1_dropShadow_38075_159"/>
<feBlend mode="normal" in="SourceGraphic" in2="effect1_dropShadow_38075_159" result="shape"/>
</filter>
</defs>
</svg>
